<?xml version="1.0" encoding="UTF-8"?>
<svg id="Layer_2" data-name="Layer 2" xmlns="http://www.w3.org/2000/svg" viewBox="0 0 350.79 91.6">
  <defs>
    <style>
      .cls-1 {
        fill: #000;
        stroke-width: 0px;
      }
    </style>
  </defs>
  <g id="Layer_1-2" data-name="Layer 1">
    <path class="cls-1" d="M304.99,81.3c-.02,5.75-4.66,10.32-10.47,10.3-5.81-.01-10.45-4.62-10.42-10.36.03-5.7,4.78-10.41,10.48-10.38,5.74.03,10.43,4.73,10.41,10.43Z"/>
    <g>
      <path class="cls-1" d="M0,88.84c7.25,0,8.72-3.62,8.72-10.33v-31.81c0-6.71-1.48-10.33-8.72-10.33v-.81l26.97-2.68v45.63c0,6.71,1.48,10.33,8.72,10.33v.81H0v-.81ZM6.44,14.36c0-6.04,4.97-10.33,11-10.33s10.87,4.29,10.87,10.33-4.83,10.47-10.87,10.47-11-4.29-11-10.47Z"/>
      <path class="cls-1" d="M39.99,88.84c7.25,0,8.72-3.62,8.72-10.33v-31.81c0-6.71-1.48-10.33-8.72-10.33v-.81l26.57-2.68v11.27c5.1-5.37,12.75-11.27,22.14-11.27,8.72,0,16.37,5.23,16.37,18.12v27.51c0,6.71,1.48,10.33,8.72,10.33v.81h-34.76v-.81c6.04,0,7.78-3.62,7.78-10.33v-29.39c0-6.98-3.09-10.06-8.05-10.06s-8.72,2.95-11.68,5.9v33.55c0,6.71,1.61,10.33,7.65,10.33v.81h-34.76v-.81Z"/>
      <path class="cls-1" d="M125.88,73.54v-37.44h-8.72v-1.74h8.72v-14.36l18.39-3.49v17.85h16.51v1.74h-16.51v40.26c0,6.71,2.28,9.8,6.98,9.8,5.37,0,9.39-4.03,12.35-7.65l.67.54c-4.56,5.5-11,12.08-21.61,12.08-9.93,0-16.77-5.77-16.77-17.58Z"/>
      <path class="cls-1" d="M165.19,88.84c7.25,0,8.72-3.62,8.72-10.33v-31.81c0-6.71-1.48-10.33-8.72-10.33v-.81l26.97-2.68v45.63c0,6.71,1.48,10.33,8.72,10.33v.81h-35.7v-.81ZM171.64,14.36c0-6.04,4.97-10.33,11-10.33s10.87,4.29,10.87,10.33-4.83,10.47-10.87,10.47-11-4.29-11-10.47Z"/>
      <path class="cls-1" d="M226.39,86.56l-14.36,4.43-.4-.13V13.69c0-6.71-1.48-10.2-8.72-10.2v-.81l26.98-2.68v41.87c3.62-4.29,9.53-8.99,18.52-8.99,15.7,0,23.62,14.09,23.62,28.58,0,16.24-10.07,29.66-29.79,29.66-7.65,0-12.21-1.88-15.83-4.56ZM252.83,62.67c0-13.55-3.62-24.83-12.88-24.83-4.29,0-7.51,2.28-10.06,5.23v39.59c.67,3.22,3.35,7.52,9.12,7.52,10.6,0,13.82-15.03,13.82-27.51Z"/>
      <path class="cls-1" d="M320.19,81.59c1.75,5.5,6.44,9.39,13.96,9.39,8.72,0,13.29-5.23,16.64-10.6l-.67-.4c-1.88,2.95-5.1,7.11-8.86,7.11-2.01,0-3.62-1.07-3.62-4.16v-29.12c0-15.43-15.03-20.94-28.32-20.94-15.03,0-25.23,6.84-25.23,15.3,0,4.56,3.09,9.39,8.86,9.39,5.1,0,9.12-4.03,9.12-8.99,0-3.62-2.15-7.25-5.64-8.72,2.28-3.22,5.9-6.17,11.94-6.17,8.99,0,10.87,6.44,10.87,14.49v13.82s-.02,0-.03,0v1.07s.1,12.74.39,15.05"/>
    </g>
  </g>
</svg>